<svg width="911" height="362" fill="none" xmlns="http://www.w3.org/2000/svg"><g opacity=".7" filter="url(#b)" clip-path="url(#a)"><path fill-rule="evenodd" clip-rule="evenodd" d="m-398.759 130.947-12.955 21.991 2.518 14.546 16.276-2.818 79.664-13.794 95.94-16.612 95.94-16.612 95.083-16.464 95.94-16.612 95.94-16.612 95.94-16.612 95.94-16.612 95.939-16.612L548.49 1.66l95.94-16.612 95.939-16.612 79.665-13.794 16.275-2.818-12.478-72.064-15.016 10.09c-14.16 9.943-44.249 29.794-77.203 28.009-15.476-.684-31.8-6.27-48.223-11.89-18.486-6.325-37.095-12.692-54.757-12.159-21.622.352-41.401 11.35-61.415 22.479-10.119 5.626-20.297 11.286-30.805 15.62-30.435 12.761-62.931 13.621-96.342 9.192-8.788-1.015-17.572-2.345-26.312-3.668-25.284-3.828-50.196-7.6-73.749-3.521-19.84 3.435-38.447 12.095-56.935 20.7-11.846 5.514-23.644 11.005-35.685 15.085-12.191 3.991-24.764 6.565-37.365 9.144-19.333 3.957-38.732 7.928-56.915 17.054-12.672 6.36-24.896 15.31-37.179 24.303-16.828 12.32-33.767 24.722-52.121 30.656C32.973 61.3-1.241 52.243-36.711 41.02c-2.577-.847-5.157-1.707-7.737-2.566-32.063-10.684-64.127-21.368-91.925-7.416-12.91 6.362-24.791 17.779-36.595 29.122-16.44 15.799-32.731 31.454-51.446 33.109-16.598 1.673-34.779-7.091-52.839-15.797-17.795-8.578-35.471-17.1-51.4-15.524-32.095 3.174-58.006 47.156-70.106 68.999Zm23.744 157.031-13.67 17.869-23.544-135.975 16.276-2.818 79.664-13.794 95.94-16.612 95.94-16.612 95.083-16.463 95.94-16.612 95.94-16.612 95.94-16.612 95.939-16.612 95.94-16.612 95.084-16.464 95.939-16.612 95.94-16.612 79.665-13.794 16.275-2.818 31.362 181.126-20.229-20.017c-19.283-19.647-59.742-59.681-93.324-65.092-33.671-5.93-61.501 21.875-89.469 53.979-6.45 7.603-12.865 15.411-19.289 23.231-20.579 25.051-41.258 50.224-63.531 69.153-28.46 24.172-58.896 36.925-95.084 16.464-16.969-9.52-34.997-26.223-52.907-42.816-21.282-19.718-42.397-39.28-61.365-46.446-30.447-11.1-55.135 7.37-79.739 25.778-4.314 3.228-8.626 6.454-12.965 9.518-28.999 21.058-60.292 33.96-91.357 43.08-30.976 9.64-62.67 15.128-98.546 1.562-11.611-4.387-23.59-10.895-35.604-17.423-24.128-13.11-48.4-26.298-70.131-22.535-16.468 2.851-34.718 23.221-52.81 43.414-16.73 18.672-33.323 37.192-48.247 41.574-18.165 5.275-33.681-9.166-50.001-24.354-12.361-11.504-25.182-23.437-39.965-27.558-35.157-9.415-66.852-3.927-95.94 16.612-29.088 20.538-56.427 56.276-69.15 74.515Z" fill="url(#c)" fill-opacity=".42"/></g><defs><linearGradient id="c" x1="-38.5" y1="105" x2="723.171" y2="57.955" gradientUnits="userSpaceOnUse"><stop stop-color="#DC995B"/><stop offset="1" stop-color="#F2EEC4" stop-opacity=".7"/></linearGradient><clipPath id="a"><path fill="#fff" d="M0 0h911v362H0z"/></clipPath><filter id="b" x="-532.229" y="-240.24" width="1516.87" height="666.087" filterUnits="userSpaceOnUse" color-interpolation-filters="sRGB"><feFlood flood-opacity="0" result="BackgroundImageFix"/><feBlend in="SourceGraphic" in2="BackgroundImageFix" result="shape"/><feGaussianBlur stdDeviation="60" result="effect1_foregroundBlur_267_2"/></filter></defs></svg>
